<?xml version="1.0"?>
<svg xmlns="http://www.w3.org/2000/svg" viewBox="0 0 64 64" width="512" height="512"><g id="Solar_energy" data-name="Solar energy"><path d="M55,30H41.792A10.872,10.872,0,0,0,43,25a11,11,0,0,0-22,0,10.872,10.872,0,0,0,1.208,5H8a1,1,0,0,0-.986.835l-5,30A1,1,0,0,0,3,62H61a1,1,0,0,0,.98-1.2l-6-30A1,1,0,0,0,55,30ZM7.18,42H18.524l-1.066,8H5.847Zm13.362,0H31v8H19.476ZM31,32v8H20.809l1.067-8Zm11.124,0,1.067,8H33V32ZM31,52v8H18.142l1.067-8Zm2,0H44.791l1.067,8H33Zm0-2V42H43.458l1.066,8Zm12.476-8h10.7l1.6,8H46.542Zm10.305-2H45.209l-1.067-8H54.181ZM23,25a9,9,0,0,1,18,0,8.884,8.884,0,0,1-1.532,5H24.532A8.884,8.884,0,0,1,23,25ZM8.847,32H19.858l-1.067,8H7.514ZM5.514,52H17.191l-1.067,8H4.181Zm42.362,8-1.067-8H58.18l1.6,8Z"/><path d="M51,12h2.719L52.03,18.757a1,1,0,0,0,1.677.95l8-8A1,1,0,0,0,61,10H59.133l.859-6.876a1,1,0,0,0-1.7-.831l-8,8A1,1,0,0,0,51,12Zm6.646-6.232-.638,5.108A1,1,0,0,0,58,12h.586l-3.74,3.74,1.124-4.5A1,1,0,0,0,55,10H53.414Z"/><path d="M32,12a1,1,0,0,0,1-1V7a1,1,0,0,0-2,0v4A1,1,0,0,0,32,12Z"/><path d="M24.134,13.375a1,1,0,1,0,1.732-1l-2-3.463a1,1,0,1,0-1.732,1Z"/><path d="M15.545,15.5a1,1,0,0,0,.366,1.366l3.465,2a1,1,0,1,0,1-1.732l-3.465-2A1,1,0,0,0,15.545,15.5Z"/><path d="M14,24a1,1,0,0,0,0,2h4a1,1,0,0,0,0-2Z"/><path d="M38.5,13.742a1,1,0,0,0,1.366-.367l2-3.463a1,1,0,1,0-1.732-1l-2,3.463A1,1,0,0,0,38.5,13.742Z"/><path d="M44.125,19a.992.992,0,0,0,.5-.134l3.465-2a1,1,0,0,0-1-1.732l-3.465,2a1,1,0,0,0,.5,1.866Z"/><path d="M45,25a1,1,0,0,0,1,1h4a1,1,0,0,0,0-2H46A1,1,0,0,0,45,25Z"/><path d="M11,7h2V9a1,1,0,0,0,2,0V7h2a1,1,0,0,0,0-2H15V3a1,1,0,0,0-2,0V5H11a1,1,0,0,0,0,2Z"/><path d="M3,18H5v2a1,1,0,0,0,2,0V18H9a1,1,0,0,0,0-2H7V14a1,1,0,0,0-2,0v2H3a1,1,0,0,0,0,2Z"/></g></svg>
